<svg width="4555" height="1465" viewBox="0 0 4555 1465" fill="none" xmlns="http://www.w3.org/2000/svg">
<path d="M1803.8 1193V913H1898.2V1193H1803.8ZM1983.64 1193V913H2061.24L2203.64 1083.4H2167.64V913H2259.64V1193H2182.04L2039.64 1022.6H2075.64V1193H1983.64ZM2345.13 1193V913H2483.13C2514.33 913 2541.79 918.733 2565.53 930.2C2589.26 941.4 2607.79 957.4 2621.13 978.2C2634.46 999 2641.13 1023.8 2641.13 1052.6C2641.13 1081.67 2634.46 1106.73 2621.13 1127.8C2607.79 1148.6 2589.26 1164.73 2565.53 1176.2C2541.79 1187.4 2514.33 1193 2483.13 1193H2345.13ZM2439.53 1119.4H2479.13C2492.46 1119.4 2504.06 1116.87 2513.93 1111.8C2524.06 1106.73 2531.93 1099.27 2537.53 1089.4C2543.13 1079.27 2545.93 1067 2545.93 1052.6C2545.93 1038.47 2543.13 1026.47 2537.53 1016.6C2531.93 1006.73 2524.06 999.267 2513.93 994.2C2504.06 989.133 2492.46 986.6 2479.13 986.6H2439.53V1119.4ZM2715.6 1193V913H2810V1193H2715.6ZM2865.04 1193L2987.44 913H3080.24L3202.64 1193H3105.04L3014.64 957.8H3051.44L2961.04 1193H2865.04ZM2937.84 1144.2L2961.84 1076.2H3090.64L3114.64 1144.2H2937.84Z" fill="#1E1E1E"/>
<path d="M1804.6 732V525.2H1722.6V452H1981V525.2H1899V732H1804.6ZM2111.92 556H2236.72V624H2111.92V556ZM2118.32 660.8H2258.32V732H2025.52V452H2253.12V523.2H2118.32V660.8ZM2459.46 738.4C2437.06 738.4 2416.26 734.933 2397.06 728C2378.13 720.8 2361.59 710.667 2347.46 697.6C2333.59 684.533 2322.79 669.067 2315.06 651.2C2307.33 633.333 2303.46 613.6 2303.46 592C2303.46 570.4 2307.33 550.667 2315.06 532.8C2322.79 514.933 2333.59 499.467 2347.46 486.4C2361.59 473.333 2378.13 463.333 2397.06 456.4C2416.26 449.2 2437.06 445.6 2459.46 445.6C2486.93 445.6 2511.19 450.4 2532.26 460C2553.59 469.6 2571.19 483.467 2585.06 501.6L2525.46 554.8C2517.19 544.4 2507.99 536.4 2497.86 530.8C2487.99 524.933 2476.79 522 2464.26 522C2454.39 522 2445.46 523.6 2437.46 526.8C2429.46 530 2422.53 534.667 2416.66 540.8C2411.06 546.933 2406.66 554.4 2403.46 563.2C2400.26 571.733 2398.66 581.333 2398.66 592C2398.66 602.667 2400.26 612.4 2403.46 621.2C2406.66 629.733 2411.06 637.067 2416.66 643.2C2422.53 649.333 2429.46 654 2437.46 657.2C2445.46 660.4 2454.39 662 2464.26 662C2476.79 662 2487.99 659.2 2497.86 653.6C2507.99 647.733 2517.19 639.6 2525.46 629.2L2585.06 682.4C2571.19 700.267 2553.59 714.133 2532.26 724C2511.19 733.6 2486.93 738.4 2459.46 738.4ZM2813.92 452H2908.32V732H2813.92V452ZM2726.72 732H2632.32V452H2726.72V732ZM2820.32 628.8H2720.32V551.2H2820.32V628.8ZM2973.8 732V452H3051.4L3193.8 622.4H3157.8V452H3249.8V732H3172.2L3029.8 561.6H3065.8V732H2973.8ZM3462.08 738.4C3439.42 738.4 3418.35 734.8 3398.88 727.6C3379.68 720.4 3363.02 710.267 3348.88 697.2C3334.75 683.867 3323.68 668.267 3315.68 650.4C3307.95 632.533 3304.08 613.067 3304.08 592C3304.08 570.667 3307.95 551.2 3315.68 533.6C3323.68 515.733 3334.75 500.267 3348.88 487.2C3363.02 473.867 3379.68 463.6 3398.88 456.4C3418.35 449.2 3439.42 445.6 3462.08 445.6C3485.02 445.6 3506.08 449.2 3525.28 456.4C3544.48 463.6 3561.15 473.867 3575.28 487.2C3589.42 500.267 3600.35 515.733 3608.08 533.6C3616.08 551.2 3620.08 570.667 3620.08 592C3620.08 613.067 3616.08 632.533 3608.08 650.4C3600.35 668.267 3589.42 683.867 3575.28 697.2C3561.15 710.267 3544.48 720.4 3525.28 727.6C3506.08 734.8 3485.02 738.4 3462.08 738.4ZM3462.08 662C3470.88 662 3479.02 660.4 3486.48 657.2C3494.22 654 3500.88 649.467 3506.48 643.6C3512.35 637.467 3516.88 630.133 3520.08 621.6C3523.28 612.8 3524.88 602.933 3524.88 592C3524.88 581.067 3523.28 571.333 3520.08 562.8C3516.88 554 3512.35 546.667 3506.48 540.8C3500.88 534.667 3494.22 530 3486.48 526.8C3479.02 523.6 3470.88 522 3462.08 522C3453.28 522 3445.02 523.6 3437.28 526.8C3429.82 530 3423.15 534.667 3417.28 540.8C3411.68 546.667 3407.28 554 3404.08 562.8C3400.88 571.333 3399.28 581.067 3399.28 592C3399.28 602.933 3400.88 612.8 3404.08 621.6C3407.28 630.133 3411.68 637.467 3417.28 643.6C3423.15 649.467 3429.82 654 3437.28 657.2C3445.02 660.4 3453.28 662 3462.08 662ZM3662.39 732V674L3818.39 492.4L3829.99 525.2H3666.39V452H3913.19V510L3757.19 691.6L3745.59 658.8H3919.59V732H3662.39ZM4053.4 556H4178.2V624H4053.4V556ZM4059.8 660.8H4199.8V732H3967V452H4194.6V523.2H4059.8V660.8ZM4256.14 732V452H4333.74L4476.14 622.4H4440.14V452H4532.14V732H4454.54L4312.14 561.6H4348.14V732H4256.14Z" fill="#1E1E1E"/>
<path fill-rule="evenodd" clip-rule="evenodd" d="M746.349 317.404C938 317.404 1094.37 472.276 1094.37 662.17C1094.37 852.064 938 1006.94 746.349 1006.94C554.699 1006.94 398.346 852.04 398.346 662.17C398.346 472.299 554.699 317.404 746.349 317.404Z" fill="#00928B"/>
<path fill-rule="evenodd" clip-rule="evenodd" d="M656.374 0H836.612L844.197 106.898C877.726 112.719 910.67 121.462 942.646 133.024L1003.16 44.2126L1159.3 133.526L1112.05 229.558C1138.16 251.12 1162.25 274.977 1184.03 300.839L1280.88 254.077L1371 408.74L1281.67 468.483C1293.34 500.107 1302.12 532.707 1307.88 565.89L1415.4 573.389V637.603L1399.03 642.044C1337.98 658.578 1317.67 705.053 1290.39 767.538C1268.1 818.562 1239.96 882.931 1173.87 946.404C1181.73 908.416 1185.96 865.2 1177.95 819.89L1166.2 753.004C1172.76 723.27 1176.07 692.922 1176.07 662.486C1176.07 428.209 983.198 237.149 746.723 237.149C510.249 237.149 317.351 428.209 317.351 662.486C317.353 692.908 320.654 723.242 327.196 752.965L315.394 819.867C307.396 865.176 311.574 908.37 319.432 946.365C253.35 882.915 225.224 818.608 202.953 767.546C175.653 705.084 155.354 658.586 94.3235 642.051L77.9531 637.611V573.396L185.889 565.867C191.748 532.802 200.528 500.311 212.128 468.769L122.387 408.748L212.51 254.077L309.407 300.862C331.143 274.966 355.201 251.075 381.289 229.481L334.095 133.51L490.207 44.2049L550.442 132.63C582.364 121.025 615.281 112.304 648.789 106.574" fill="#FF671F"/>
<path d="M735.609 748.385C735.609 748.385 749.885 581.787 845.113 481.828C845.113 481.828 796.792 518.177 735.609 516.158C674.427 514.138 626.105 481.828 626.105 481.828C735.609 599.961 735.609 748.385 735.609 748.385Z" fill="#202020"/>
<ellipse cx="736.056" cy="445.963" rx="42.9076" ry="42.0646" fill="#202020"/>
<path d="M749.974 907.875C806.435 763.24 904.379 735.385 1058.21 731.94C915.143 700.715 855.241 652.785 883.329 527.94C757.371 657.912 726.674 739.142 749.974 907.875Z" fill="#202020"/>
<path d="M723.436 891.698C668.761 746.688 579.511 732.725 444.801 715.763C568.828 698.21 621.698 623.371 592.568 500.032C707.511 637.005 737.663 730.427 723.436 891.698Z" fill="#202020"/>
<ellipse cx="954.169" cy="607.136" rx="46.4832" ry="46.4924" fill="#202020"/>
<ellipse cx="525.541" cy="607.136" rx="46.9301" ry="46.4924" fill="#202020"/>
<path d="M0 1362.25C11.4722 1345.31 22.9444 1328.73 34.3569 1312.16C39.137 1305.25 42.4083 1295.54 48.9959 1292.16C55.9121 1288.61 65.9951 1290.97 74.7038 1291.02C224.784 1292.15 371.159 1314.33 512.366 1366.36C557.567 1383.01 601.454 1402.55 643.041 1426.89C645.986 1428.54 648.762 1430.48 651.332 1432.66C439.215 1367.37 222.812 1341.67 0.702075 1363.3C0 1363.4 0 1362.62 0 1362.25Z" fill="#00928B"/>
<path d="M1493.78 1362.99C1411.46 1353.93 1328.95 1353.86 1246.35 1358.71C1130.67 1365.35 1016.05 1384.29 904.453 1415.2C883.958 1420.88 863.613 1427.16 842.551 1432.13C845.837 1430.04 849.034 1427.82 852.41 1425.88C906.724 1394.57 964.413 1370.8 1024.03 1351.57C1109.37 1323.97 1196.76 1305.69 1286.17 1298.29C1336.96 1294.13 1387.99 1293.39 1438.91 1290.89C1443.89 1290.66 1446.46 1292.67 1448.98 1296.47C1463.47 1318.27 1478.15 1339.95 1493.27 1361.76C1493.78 1361.92 1493.78 1362.62 1493.78 1362.99Z" fill="#00928B"/>
<path d="M755.493 1439.33C755.216 1439.59 755.856 1432.94 755.493 1433.05C755.131 1433.16 755.125 1273.29 745.729 1426.96C755.125 1279.2 780.928 1449.04 752.357 1429.84C764.457 1436.82 741.154 1422.29 752.357 1429.84L755.493 1427.14L725.976 1429.84C747.053 1416.9 724.557 1435.03 725.976 1410.27C730.084 1338.39 734.595 1266.55 738.629 1194.67C738.808 1191.42 736.597 1187.18 734.147 1184.74C684.389 1135.4 627.984 1094.86 566.142 1061.62C493.608 1022.32 414.692 995.901 332.963 983.557C313.096 980.598 293.005 978.911 272.226 976.543C253.778 1050.85 235.48 1124.53 217.061 1198.67C390.683 1235.8 548.217 1307.01 691.709 1408.89C496.114 1317.97 292.392 1258.91 73.8379 1252.58C75.3317 1249.62 76.3474 1247.38 77.5873 1245.18C131.562 1147.27 185.508 1049.36 239.423 951.43C242.112 946.517 245.398 945.895 250.148 946.147C303.037 949.144 355.477 957.489 406.651 971.053C523.36 1001.64 628.552 1054 719.359 1133.52C728.486 1141.52 737.284 1149.8 746.904 1158.58C748.682 1156.98 750.489 1155.44 752.207 1153.8C848.81 1061.83 963.487 1002.66 1092.56 969.647C1141.44 957.081 1191.41 949.191 1241.81 946.088C1248.63 945.673 1252.26 947.568 1255.61 953.694C1308.93 1050.87 1362.42 1147.93 1416.1 1244.87C1417.37 1247.15 1418.55 1249.47 1420.37 1252.95C1311.48 1255.03 1206.06 1271.95 1102.2 1299.39C998.846 1326.82 898.298 1363.74 801.86 1409.66C829.719 1383.26 952.403 1312.96 1027.7 1279.69C1107.55 1244.39 1189.84 1216.4 1276.78 1199.1C1258.39 1125.1 1240.07 1051.22 1221.42 976.055C1194.84 979.562 1168.57 981.974 1142.74 986.635C1001.06 1012.41 878.341 1075.6 772.373 1171.79C759.616 1183.37 754.074 1194.48 755.493 1212.13C760.482 1274.05 763.575 1336.12 767.443 1398.12C768.071 1408.21 768.937 1418.31 769.057 1428.4C769.057 1433.8 760.611 1432.93 765.122 1435.65C744.896 1429.37 730.801 1417.82 755.493 1433.05C725.976 1366.54 732.381 1358.81 767.443 1428.4C722.391 1448.73 784.921 1400.84 755.493 1439.33Z" fill="#046A38"/>
<path d="M963.487 986.044C963.269 986.462 962.931 986.807 962.516 987.035C962.437 986.593 962.483 986.137 962.651 985.718C962.89 985.393 963.263 985.778 963.487 986.044Z" fill="#F89420"/>
<path d="M530.707 985.57C531.048 985.925 531.286 986.365 531.394 986.843C530.988 986.879 530.583 986.763 530.259 986.517C530.11 986.177 530.513 985.777 530.707 985.57Z" fill="#F89421"/>
<path d="M771.748 1327.69C771.748 1414.94 764.688 1465 748.401 1465C732.114 1465 723.416 1414.94 723.416 1327.69C723.416 1240.45 729.656 1163.81 745.943 1163.81C762.231 1163.81 771.748 1240.45 771.748 1327.69Z" fill="#046A38"/>
</svg>
